# xmcd
#
# Track frame offsets:
#	150
#	20370
#	33810
#	49924
#	72608
#	81536
#	96060
#	116674
#	144347
#	160774
#	173229
#	192678
#	205675
#	218091
#	232937
#	245542
#	259426
#
# Disc length: 3750 seconds
#
# Revision: 1
# Processed by: cddbd v1.5.2PL0 Copyright (c) Steve Scherf et al.
# Submitted via: audiograbber 1.83.01
#
DISCID=f40ea411
DTITLE=Best Of Rock - Boogie Rock
DYEAR=1900
DGENRE=Rock
TTITLE0=Bachman-Turner Overdrive - Let It Ride
TTITLE1=The Allman Brothers Band - Midnight Rider
TTITLE2=Lynyrd Skynyrd - What's Your Name
TTITLE3=Canned Heat - On The Road Again
TTITLE4=Mott - Leave My Woman Alone
TTITLE5=Chris Spedding - Black Denim Trousers And Motorcycle Boots
TTITLE6=The Doobie Bros. - Jesus Is Just Alright
TTITLE7=Molly Hatchet - Boogie No More
TTITLE8=The J. Geils Band - Jus' Can't Stop Me
TTITLE9=The Outlaws - Keep Prayin'
TTITLE10=38 Special - Wild-Eyed Southern Boys
TTITLE11=Little Feat - Sailin' Shoes
TTITLE12=Johnny Winter - Johnny B. Goode
TTITLE13=Rory Gallagher - Country Mile
TTITLE14=Grand Funk Railroad - The Loco-Motion
TTITLE15=Wet Willie - Grit's Ain't Groceries
TTITLE16=Bachman-Turner Overdrive - Takin' Care Of Business
EXTD=
EXTT0=
EXTT1=
EXTT2=
EXTT3=
EXTT4=
EXTT5=
EXTT6=
EXTT7=
EXTT8=
EXTT9=
EXTT10=
EXTT11=
EXTT12=
EXTT13=
EXTT14=
EXTT15=
EXTT16=
PLAYORDER=
